HIERARCHY
ROOT root
{
	OFFSET	0	13.1	24.9
	CHANNELS 6  Xposition Yposition Zposition Xrotation Yrotation Zrotation
	JOINT spine_1
	{
		OFFSET	0	9.99999	0
		CHANNELS 3  Xrotation Yrotation Zrotation
		JOINT spine_2
		{
			OFFSET	0	112	-10
			CHANNELS 3  Xrotation Yrotation Zrotation
			JOINT spine_3
			{
				OFFSET	0	206.5	19.3
				CHANNELS 3  Xrotation Yrotation Zrotation
				JOINT spine_4
				{
					OFFSET	0	110.4	14.6
					CHANNELS 3  Xrotation Yrotation Zrotation
					JOINT neck_1
					{
						OFFSET	0	71.8	-50.3
						CHANNELS 3  Xrotation Yrotation Zrotation
						JOINT neck_2
						{
							OFFSET	0	86.2	-25.8
							CHANNELS 3  Xrotation Yrotation Zrotation
							JOINT head_ee
							{
								OFFSET	0	179.8	-8.7
								CHANNELS 3  Xrotation Yrotation Zrotation
								End Site
								{
									OFFSET	1	0	0
								}
							}
						}
					}
					JOINT left_clavicle
					{
						OFFSET	-43.2	22.4	-70.8
						CHANNELS 3  Xrotation Yrotation Zrotation
						JOINT left_shoulder
						{
							OFFSET	-93.9	-5.79999	48.7
							CHANNELS 3  Xrotation Yrotation Zrotation
							JOINT left_elbow
							{
								OFFSET	-291.4	-30.8	15.2
								CHANNELS 3  Xrotation Yrotation Zrotation
								JOINT left_lowarm_twist
								{
									OFFSET	-110.7	-3.89999	13.6
									CHANNELS 3  Xrotation Yrotation Zrotation
									JOINT left_hand
									{
										OFFSET	-110.7	-3.89999	13.6
										CHANNELS 3  Xrotation Yrotation Zrotation
										JOINT left_ee
										{
											OFFSET	-80.8	-5.10001	12.1
											CHANNELS 3  Xrotation Yrotation Zrotation
											End Site
											{
												OFFSET	1	0	0
											}
										}
									}
								}
							}
						}
					}
					JOINT right_clavicle
					{
						OFFSET	43.2	22.4	-70.8
						CHANNELS 3  Xrotation Yrotation Zrotation
						JOINT right_shoulder
						{
							OFFSET	93.9	-5.79999	48.7
							CHANNELS 3  Xrotation Yrotation Zrotation
							JOINT right_elbow
							{
								OFFSET	291.4	-30.8	15.2
								CHANNELS 3  Xrotation Yrotation Zrotation
								JOINT right_lowarm_twist
								{
									OFFSET	110.7	-3.89999	13.6
									CHANNELS 3  Xrotation Yrotation Zrotation
									JOINT right_hand
									{
										OFFSET	110.7	-3.89999	13.6
										CHANNELS 3  Xrotation Yrotation Zrotation
										JOINT right_ee
										{
											OFFSET	80.8	-5.10001	12.1
											CHANNELS 3  Xrotation Yrotation Zrotation
											End Site
											{
												OFFSET	1	0	0
											}
										}
									}
								}
							}
						}
					}
				}
			}
		}
	}
	JOINT left_hip
	{
		OFFSET	-82.8	-127.5	0.300001
		CHANNELS 3  Xrotation Yrotation Zrotation
		JOINT left_knee
		{
			OFFSET	-28.2	-396.7	2.2
			CHANNELS 3  Xrotation Yrotation Zrotation
			JOINT left_ankle
			{
				OFFSET	-11.7	-411.3	35.4
				CHANNELS 3  Xrotation Yrotation Zrotation
				JOINT left_toes
				{
					OFFSET	0	-60	-88.6
					CHANNELS 3  Xrotation Yrotation Zrotation
					JOINT left_foot_ee
					{
						OFFSET	-22.5	-16.5	-42.2
						CHANNELS 3  Xrotation Yrotation Zrotation
						End Site
						{
							OFFSET	1	0	0
						}
					}
				}
			}
		}
	}
	JOINT right_hip
	{
		OFFSET	82.8	-127.5	0.300001
		CHANNELS 3  Xrotation Yrotation Zrotation
		JOINT right_knee
		{
			OFFSET	28.2	-396.7	2.2
			CHANNELS 3  Xrotation Yrotation Zrotation
			JOINT right_ankle
			{
				OFFSET	11.7	-411.3	35.4
				CHANNELS 3  Xrotation Yrotation Zrotation
				JOINT right_toes
				{
					OFFSET	0	-60	-88.6
					CHANNELS 3  Xrotation Yrotation Zrotation
					JOINT right_foot_ee
					{
						OFFSET	22.5	-16.5	-42.2
						CHANNELS 3  Xrotation Yrotation Zrotation
						End Site
						{
							OFFSET	1	0	0
						}
					}
				}
			}
		}
	}
}
MOTION
Frames: 13
Frame Time: 0.02
847.759 709.142 -1440.59 173.551 63.1331 -171.601 -1.55906 0.252769 1.48433 -1.55784 0.157816 1.4974 -1.55253 -0.200958 1.49223 -1.55564 0.0372056 1.50524 -20.1872 -11.005 -12.8523 -20.0128 -14.7767 -16.4793 -0.0 0.0 -0.0 0.623885 -27.6241 -1.80958 -23.8938 -42.6094 74.326 0.320621 -9.02488 0.0253035 -4.83445 -0.195218 0.586148 4.13478 29.7379 36.5248 -0.0 0.0 -0.0 6.66195 -0.186675 -12.9236 -9.78091 0.163525 -57.9265 2.52138 51.3099 -1.21117 5.8446 -0.168953 0.727124 -2.87112 25.3647 30.5214 0.0 0.0 0.0 18.4819 -44.9302 3.85922 2.37377 -0.105005 -0.349084 32.7808 -1.92893 -4.2163 -35.6366 0.0 0.0 -0.0 0.0 -0.0 -19.9405 -5.01545 -14.198 4.69238 0.221475 0.685666 13.9032 -28.1688 2.08017 34.7774 -0.0 -0.0 0.0 0.0 0.0 
824.877 710.605 -1432.55 171.248 64.1704 -168.927 -1.62785 0.432419 1.36318 -1.62689 0.344808 1.38793 -1.61734 0.0050731 1.4301 -1.62012 0.230844 1.41136 -21.5858 -10.2735 -13.3489 -21.3505 -13.4578 -16.855 -0.0 0.0 -0.0 0.903369 -26.5334 -1.08617 -23.4298 -42.8332 73.7094 0.336776 -9.47157 0.0278999 -4.62069 -0.185544 0.560588 4.14867 29.1591 36.5795 -0.0 0.0 -0.0 6.37565 -1.38239 -12.3677 -10.9745 -0.12614 -58.681 2.43309 50.3104 -1.14274 2.1677 -0.0713167 0.267665 -2.66358 28.0591 29.9185 0.0 0.0 0.0 15.0832 -46.5674 2.65527 0.923947 -0.0391479 -0.136378 30.8805 -1.3686 -4.01478 -34.819 0.0 0.0 -0.0 0.0 -0.0 -20.5288 -3.78108 -14.0441 1.25049 0.0535096 0.184426 13.1578 -28.9859 1.98439 34.5262 -0.0 -0.0 0.0 0.0 0.0 
806.215 712.345 -1428.06 167.558 65.3542 -165.201 -1.71285 0.521708 1.24673 -1.71209 0.441325 1.2774 -1.70115 0.123153 1.34585 -1.70353 0.334141 1.30952 -21.7177 -10.6209 -13.1753 -21.533 -14.2453 -16.8781 -0.0 0.0 -0.0 0.884595 -27.2536 -1.20331 -22.2254 -43.1963 74.7699 0.351398 -9.87486 0.0303568 -2.43194 -0.0920107 0.296888 4.38292 28.5026 38.2232 -0.0 0.0 -0.0 6.30875 0.346346 -12.2215 -11.7079 -0.0825745 -59.8513 2.23676 47.927 -0.994263 -0.785005 0.0283196 -0.0962494 -2.6562 28.5011 30.0101 0.0 0.0 0.0 12.9119 -47.548 2.51919 -1.62432 0.063465 0.241188 31.1447 -2.98065 -4.05878 -33.9971 0.0 0.0 -0.0 0.0 -0.0 -19.662 -3.11083 -13.3821 -4.58802 -0.161526 -0.685409 12.0991 -29.7202 1.84037 36.2149 -0.0 -0.0 0.0 0.0 0.0 
788.807 714.55 -1424.21 164.887 65.6392 -161.902 -1.90892 0.464167 1.18911 -1.90822 0.387566 1.21623 -1.89896 0.0811623 1.2739 -1.90112 0.281317 1.2451 -23.3383 -9.57478 -10.2217 -23.38 -13.9118 -14.0043 -0.0 0.0 -0.0 1.08282 -27.3329 -0.780779 -20.2439 -43.4755 73.8964 0.300341 -8.4626 0.0222207 -0.556071 -0.0199244 0.0682195 4.54106 27.8256 39.3538 -0.0 0.0 -0.0 6.16762 1.17035 -11.9293 -12.351 0.205786 -62.3374 2.01829 44.9892 -0.83585 -3.51383 0.136983 -0.427673 -2.57498 27.8431 29.2103 0.0 0.0 0.0 11.0578 -48.2458 1.85633 -4.55774 0.16064 0.680847 31.293 -4.19728 -4.08884 -34.1055 0.0 0.0 -0.0 0.0 -0.0 -18.9795 -2.68621 -13.3568 -9.26073 -0.269103 -1.39421 11.9485 -28.1058 1.79866 37.8626 -0.0 -0.0 0.0 0.0 0.0 
772.83 722.26 -1419.88 163.634 65.718 -160.328 -1.85289 0.454889 1.16008 -1.85222 0.380153 1.18667 -1.84338 0.0823411 1.24335 -1.84543 0.277657 1.21475 -23.2 -10.0866 -11.8493 -23.1443 -14.1508 -15.7031 -0.0 0.0 -0.0 1.3669 -28.0862 -0.243141 -21.7067 -44.8362 71.7123 0.394369 -11.0542 0.0381618 0.255231 0.00892303 -0.0313751 4.63368 27.5541 40.0401 -0.0 0.0 -0.0 6.18494 2.19625 -11.9439 -13.3225 0.0756619 -62.5344 1.86383 42.7116 -0.728821 -5.41293 0.221877 -0.655141 -2.50294 27.6978 28.6462 0.0 0.0 0.0 8.94365 -48.822 1.18947 -5.98121 0.199648 0.895813 30.086 -3.69532 -3.95489 -33.8126 0.0 0.0 -0.0 0.0 -0.0 -18.267 -2.43389 -13.1363 -12.7755 -0.311751 -1.93175 10.5827 -28.172 1.60067 38.4618 -0.0 -0.0 0.0 0.0 0.0 
760.782 725.796 -1417.82 163.777 65.8709 -160.428 -1.95651 0.45693 1.12758 -1.95588 0.384259 1.15436 -1.94719 0.0919311 1.21315 -1.94914 0.282359 1.18342 -22.9336 -10.3303 -12.1709 -22.8622 -14.4223 -16.0614 -0.0 0.0 -0.0 1.53556 -28.9091 0.0361822 -20.4841 -44.1362 71.4295 0.381894 -10.7128 0.0358065 1.31608 0.0445082 -0.162193 4.71193 27.2598 40.6243 -0.0 0.0 -0.0 6.11007 1.87486 -11.801 -13.9086 0.204479 -63.7681 1.76432 41.1495 -0.662322 -6.87458 0.292335 -0.828253 -2.4395 27.8547 28.2469 0.0 0.0 0.0 7.56475 -49.1743 0.755436 -5.93459 0.198455 0.888759 28.6982 -5.24389 -3.82391 -33.8686 0.0 0.0 -0.0 0.0 -0.0 -17.3907 -2.32189 -12.8379 -15.0794 -0.321786 -2.28508 10.2551 -28.5627 1.55664 38.8646 -0.0 -0.0 0.0 0.0 0.0 
746.461 728.858 -1414.56 163.345 64.2759 -160.035 -2.03778 0.364108 1.07096 -2.03719 0.295227 1.09195 -2.03074 0.019086 1.13099 -2.03247 0.197455 1.11379 -24.252 -10.1284 -11.6697 -24.2555 -14.521 -15.7614 -0.0 0.0 -0.0 1.73303 -29.3343 0.419843 -20.3794 -46.2846 67.6753 0.391524 -10.9764 0.0376182 1.86793 0.0620591 -0.230495 4.79057 26.7283 41.2034 -0.0 0.0 -0.0 6.01824 2.50376 -11.6027 -14.4014 0.205648 -65.135 1.43271 35.3621 -0.456734 -7.23665 0.310471 -0.870856 -2.42763 27.9451 28.193 0.0 0.0 0.0 6.35759 -49.3699 1.13388 -7.04408 0.225283 1.05691 28.3738 -5.49351 -3.79148 -34.3896 0.0 0.0 -0.0 0.0 -0.0 -16.3076 -2.52682 -12.9254 -17.0154 -0.319231 -2.58209 9.41146 -28.1897 1.42877 39.1913 -0.0 -0.0 0.0 0.0 0.0 
734.069 728.185 -1412.39 163.499 63.2588 -160.45 -2.04931 0.276049 1.11443 -2.04865 0.20458 1.12974 -2.04378 -0.0783304 1.14544 -2.0456 0.103541 1.14343 -25.0512 -10.0051 -11.1787 -25.1163 -14.6388 -15.4101 -0.0 0.0 -0.0 1.90766 -29.7391 0.755782 -20.1222 -47.7519 65.1197 0.392671 -11.0078 0.0378369 2.24866 0.0737837 -0.277712 4.82775 26.402 41.4742 -0.0 0.0 -0.0 5.95728 3.32216 -11.4583 -14.8132 0.401518 -66.0329 1.22881 31.3283 -0.344585 -7.51595 0.324645 -0.903644 -2.40491 27.9637 28.038 0.0 0.0 0.0 5.77137 -49.5066 1.40019 -7.13086 0.227243 1.07008 27.7884 -5.46718 -3.72591 -34.8674 0.0 0.0 -0.0 0.0 -0.0 -15.3362 -2.60761 -11.8412 -18.4258 -0.311051 -2.79833 8.84241 -27.8518 1.34176 39.4847 -0.0 -0.0 0.0 0.0 0.0 
719.34 728.331 -1408.49 163.096 62.6725 -160.013 -1.99053 0.206816 0.987487 -1.99 0.143563 0.998644 -1.98688 -0.104393 1.0035 -1.98828 0.0553927 1.00739 -25.9432 -9.82168 -11.1202 -26.0262 -14.4666 -15.4365 -0.0 0.0 -0.0 2.12936 -29.9398 1.21521 -19.7549 -48.8983 62.5256 0.409036 -11.4547 0.0410245 2.47562 0.0806232 -0.305895 4.85301 26.0793 41.651 -0.0 0.0 -0.0 5.95899 3.62 -11.4531 -15.4967 0.442597 -67.1392 1.0882 28.3266 -0.274622 -7.68032 0.333061 -0.922907 -2.40187 27.869 27.9844 0.0 0.0 0.0 4.7108 -49.6072 1.321 -7.78677 0.241419 1.16973 27.6424 -5.67315 -3.71236 -35.1733 0.0 0.0 -0.0 0.0 -0.0 -14.6597 -2.67165 -11.7061 -19.2074 -0.304227 -2.91805 8.62767 -27.5008 1.30713 39.7329 -0.0 -0.0 0.0 0.0 0.0 
709.099 732.958 -1406.12 163.451 61.963 -160.516 -1.97477 0.0712721 0.903249 -1.97431 0.013654 0.905954 -1.97366 -0.207575 0.881961 -1.97474 -0.0656865 0.903672 -24.6838 -9.42591 -9.1964 -24.8381 -14.285 -13.2398 -0.0 0.0 -0.0 2.40002 -28.9765 1.90491 -18.0737 -50.5619 60.4294 0.425883 -11.9132 0.0444363 2.57903 0.0837025 -0.318746 4.8054 26.8104 41.3267 -0.0 0.0 -0.0 5.90484 4.12949 -11.3277 -16.6798 1.65498 -67.8824 0.960214 25.4382 -0.216735 -8.26575 0.363486 -0.99132 -2.34242 28.2558 27.6942 0.0 0.0 0.0 2.72306 -49.6743 0.633721 -5.31529 0.182065 0.795131 27.3309 -5.49737 -3.67491 -36.303 0.0 0.0 -0.0 0.0 -0.0 -12.1964 -3.18152 -10.6793 -20.8506 -0.284558 -3.16941 7.56542 -27.3564 1.1487 39.8745 -0.0 -0.0 0.0 0.0 0.0 
701.766 736.302 -1405.21 162.844 61.4217 -159.89 -1.94979 -0.0847272 0.844196 -1.94941 -0.138272 0.837095 -1.95116 -0.337841 0.778278 -1.95195 -0.210691 0.821863 -26.5115 -9.05802 -9.5706 -26.6562 -13.6916 -13.7189 -0.0 0.0 -0.0 2.30548 -29.3266 1.66256 -14.6782 -51.8101 58.8891 0.417846 -11.6946 0.0427921 1.2365 0.041923 -0.152357 4.43685 27.7614 38.5663 -0.0 0.0 -0.0 5.91242 3.99399 -11.3474 -18.5753 2.97473 -68.9909 0.919567 24.4902 -0.199579 -8.16261 0.358075 -0.97929 -2.30818 28.2833 27.4619 0.0 0.0 0.0 1.42708 -49.5389 0.310548 -5.67221 0.191634 0.849069 26.7563 -3.88637 -3.58986 -36.0271 0.0 0.0 -0.0 0.0 -0.0 -11.2396 -4.30838 -10.3666 -20.9446 -0.283215 -3.18376 9.43624 -24.4342 1.40158 40.0535 -0.0 -0.0 0.0 0.0 0.0 
696.583 738.39 -1405.19 163.592 61.3303 -161.031 -1.85305 -0.121707 0.769141 -1.85273 -0.170401 0.759839 -1.85481 -0.349031 0.696113 -1.85541 -0.234715 0.742497 -26.4201 -8.69371 -8.50137 -26.6016 -13.393 -12.5254 -0.0 0.0 -0.0 2.61802 -28.7758 2.39915 -11.695 -53.1923 57.4084 0.419946 -11.7518 0.0432188 0.0736002 0.00258747 -0.00904352 4.13893 29.1431 36.5091 -0.0 0.0 -0.0 5.97352 4.42003 -11.4578 -19.9458 4.23954 -69.6447 0.871122 23.3413 -0.179939 -8.19618 0.359834 -0.983207 -2.31248 27.9394 27.3756 0.0 0.0 0.0 1.20228 -49.4371 0.390079 -3.58856 0.131029 0.535056 25.387 -2.8469 -3.42177 -36.802 0.0 0.0 -0.0 0.0 -0.0 -9.7881 -4.97316 -9.51119 -22.6596 -0.254576 -3.44536 9.86038 -22.8009 1.45098 40.0578 -0.0 -0.0 0.0 0.0 0.0 
693.058 737.671 -1404.53 164.149 62.3725 -161.876 -1.90273 -0.104428 0.763518 -1.90242 -0.1528 0.755327 -1.90424 -0.331459 0.695705 -1.90485 -0.217429 0.739319 -25.996 -8.13516 -7.04949 -26.203 -12.8404 -10.8208 -0.0 0.0 -0.0 2.66547 -29.1491 2.46221 -10.3262 -53.8048 55.0287 0.427924 -11.9687 0.0448586 -1.37276 -0.0503866 0.168059 3.63547 30.271 33.1551 -0.0 0.0 -0.0 5.91018 5.25863 -11.3001 -22.1667 6.24896 -70.2945 0.925857 24.6378 -0.202194 -9.62089 0.436591 -1.14848 -2.27636 28.2754 27.2352 0.0 0.0 0.0 0.856516 -49.3246 0.362613 -1.95627 0.0755904 0.290689 25.6291 -2.23798 -3.4439 -37.6576 0.0 0.0 -0.0 0.0 -0.0 -6.32463 -5.43825 -7.81469 -23.7326 -0.232679 -3.60856 10.3041 -21.3859 1.50471 39.9597 -0.0 -0.0 0.0 0.0 0.0 
